<svg xmlns="http://www.w3.org/2000/svg" width="56" height="56" viewBox="0 0 56 56" fill="none">
    <g clip-path="url(#clip0_1_136)">
        <circle cx="28" cy="28" r="28" fill="white"/>
        <path fill-rule="evenodd" clip-rule="evenodd" d="M28 3.29412C14.3553 3.29412 3.29412 14.3553 3.29412 28C3.29412 41.6447 14.3553 52.7059 28 52.7059C41.6447 52.7059 52.7059 41.6447 52.7059 28C52.7059 14.3553 41.6447 3.29412 28 3.29412ZM0 28C0 12.536 12.536 0 28 0C43.464 0 56 12.536 56 28C56 43.464 43.464 56 28 56C12.536 56 0 43.464 0 28ZM21.4118 17.2941C18.6172 17.2941 16.2289 19.0341 15.2714 21.4898C16.076 20.9219 17.0579 20.5882 18.1176 20.5882C20.8466 20.5882 23.0588 22.8005 23.0588 25.5294V30.4706C23.0588 33.1995 20.8466 35.4118 18.1176 35.4118C16.8579 35.4118 15.7082 34.9403 14.8354 34.1642C15.042 37.6168 17.9073 40.3529 21.4118 40.3529C25.0503 40.3529 28 37.4033 28 33.7647V30.4706V25.5294V23.8824C28 20.2438 25.0503 17.2941 21.4118 17.2941ZM29.659 34.1642C30.5317 34.9403 31.6814 35.4118 32.9412 35.4118C35.6701 35.4118 37.8824 33.1995 37.8824 30.4706V25.5294C37.8824 22.8005 35.6701 20.5882 32.9412 20.5882C31.8814 20.5882 30.8996 20.9219 30.0949 21.4898C31.0525 19.0341 33.4407 17.2941 36.2353 17.2941C39.8739 17.2941 42.8235 20.2438 42.8235 23.8824V33.7647C42.8235 37.4033 39.8739 40.3529 36.2353 40.3529C32.7309 40.3529 29.8655 37.6168 29.659 34.1642ZM13.1765 23.8824V25.5294V30.4706V33.7647C13.1765 38.3129 16.8635 42 21.4118 42C24.6715 42 27.4888 40.1061 28.8235 37.3587C30.1582 40.1061 32.9756 42 36.2353 42C40.7835 42 44.4706 38.3129 44.4706 33.7647V23.8824C44.4706 19.3341 40.7835 15.6471 36.2353 15.6471C32.9756 15.6471 30.1582 17.5409 28.8235 20.2884C27.4888 17.5409 24.6715 15.6471 21.4118 15.6471C16.8635 15.6471 13.1765 19.3341 13.1765 23.8824Z" fill="url(#paint0_linear_1_136)"/>
        <circle cx="20.5882" cy="23.8824" r="0.823529" fill="white"/>
        <circle cx="35.4118" cy="23.8824" r="0.823529" fill="white"/>
    </g>
    <defs>
        <linearGradient id="paint0_linear_1_136" x1="28" y1="0" x2="28" y2="56" gradientUnits="userSpaceOnUse">
            <stop stop-color="#4877E7"/>
            <stop offset="1" stop-color="#8B55E9"/>
        </linearGradient>
        <clipPath id="clip0_1_136">
            <rect width="56" height="56" fill="white"/>
        </clipPath>
    </defs>
</svg>
