<svg xmlns="http://www.w3.org/2000/svg" width="40" height="40" viewBox="0 0 40 40" fill="none">
    <path fill-rule="evenodd" clip-rule="evenodd" d="M15 15H11.6667C10.7462 15 10 15.7462 10 16.6667V31.6667H15V15Z" fill="#E9E9E9"/>
    <path fill-rule="evenodd" clip-rule="evenodd" d="M25 23.3273C24.9968 22.4096 24.2518 21.6667 23.3333 21.6667H20C19.0795 21.6667 18.3333 22.4128 18.3333 23.3333V31.6667H25V23.3273Z" fill="#E9E9E9"/>
    <path fill-rule="evenodd" clip-rule="evenodd" d="M26.6667 31.6667V28.3333C26.6667 27.4128 27.4128 26.6667 28.3333 26.6667H33.3333V30C33.3333 30.9205 32.5871 31.6667 31.6667 31.6667H26.6667Z" fill="#E9E9E9"/>
    <path d="M7.49999 31.6667V11.6667C7.49999 11.2064 7.87309 10.8333 8.33332 10.8333H15C15.4602 10.8333 15.8333 11.2064 15.8333 11.6667V32.5H8.33332C7.87309 32.5 7.49999 32.1269 7.49999 31.6667Z" stroke="black" stroke-width="1.66667" stroke-linecap="round" stroke-linejoin="round"/>
    <path d="M24.1667 32.5H15.8333V17.5H23.3333C23.7936 17.5 24.1667 17.8731 24.1667 18.3333V32.5Z" stroke="black" stroke-width="1.66667" stroke-linecap="round" stroke-linejoin="round"/>
    <path d="M31.6667 32.5H24.1667V24.1667H31.6667C32.1269 24.1667 32.5 24.5398 32.5 25V31.6667C32.5 32.1269 32.1269 32.5 31.6667 32.5Z" stroke="black" stroke-width="1.66667" stroke-linecap="round" stroke-linejoin="round"/>
</svg>
