<svg xmlns="http://www.w3.org/2000/svg" width="47" height="56" viewBox="0 0 56 56" fill="none">
    <path d="M34 16.3333C34 19.647 31.3137 22.3333 28 22.3333C24.6863 22.3333 22 19.647 22 16.3333C22 13.0196 24.6863 10.3333 28 10.3333C31.3137 10.3333 34 13.0196 34 16.3333Z" stroke="#6E63E0" stroke-width="2"/>
    <path d="M29.1666 37.3333L12.8333 37.3333V32.7043C12.8333 29.4619 15.4618 26.8334 18.7043 26.8333L34.9999 26.8333" stroke="#6E63E0" stroke-width="2" stroke-linecap="round" stroke-linejoin="round"/>
    <path d="M39.6667 35V39.6667" stroke="#6E63E0" stroke-width="2" stroke-linecap="round" stroke-linejoin="round"/>
    <path d="M42 37.3333L37.3333 37.3333" stroke="#6E63E0" stroke-width="2" stroke-linecap="round" stroke-linejoin="round"/>
    <path d="M45.6667 37.3333C45.6667 40.647 42.9804 43.3333 39.6667 43.3333C36.353 43.3333 33.6667 40.647 33.6667 37.3333C33.6667 34.0196 36.353 31.3333 39.6667 31.3333C42.9804 31.3333 45.6667 34.0196 45.6667 37.3333Z" stroke="#6E63E0" stroke-width="2"/>
</svg>
