<svg xmlns="http://www.w3.org/2000/svg" width="40" height="40" viewBox="0 0 40 40" fill="none">
    <path fill-rule="evenodd" clip-rule="evenodd"
          d="M20 20C23.6819 20 26.6667 17.0152 26.6667 13.3333C26.6667 12.3551 26.456 11.4261 26.0775 10.5892C25.2406 10.2107 24.3116 10 23.3333 10C19.6514 10 16.6667 12.9848 16.6667 16.6667C16.6667 17.6449 16.8773 18.5739 17.2558 19.4108C18.0927 19.7893 19.0218 20 20 20Z"
          fill="#E9E9E9"/>
    <path fill-rule="evenodd" clip-rule="evenodd"
          d="M31.8327 25.0027C31.7775 25.0009 31.7222 25 31.6667 25H16.6667C13.9052 25 11.6667 27.2386 11.6667 30V32.5H32.5V27.5C32.5 26.5904 32.2571 25.7375 31.8327 25.0027Z"
          fill="#E9E9E9"/>
    <path d="M25.8333 13.3333C25.8333 16.555 23.2217 19.1666 20 19.1666C16.7783 19.1666 14.1667 16.555 14.1667 13.3333C14.1667 10.1116 16.7783 7.49996 20 7.49996C23.2217 7.49996 25.8333 10.1116 25.8333 13.3333Z"
          stroke="black" stroke-width="1.66667"/>
    <path d="M7.5 27.5V32.5H32.5V27.5C32.5 24.7386 30.2614 22.5 27.5 22.5H12.5C9.73858 22.5 7.5 24.7386 7.5 27.5Z"
          stroke="black" stroke-width="1.66667" stroke-linecap="round" stroke-linejoin="round"/>
</svg>
