<svg xmlns="http://www.w3.org/2000/svg" width="36" height="36" viewBox="0 0 36 36" fill="none">
    <path fill-rule="evenodd" clip-rule="evenodd" d="M20.6197 12.8495C20.7747 12.999 21.0203 12.999 21.1753 12.8495L21.3648 12.6666C21.5278 12.5093 21.5278 12.2482 21.3648 12.0909L18.2773 9.11132C18.1223 8.96175 17.8767 8.96175 17.7217 9.11132L14.6342 12.0909C14.4712 12.2482 14.4712 12.5093 14.6342 12.6666L14.8237 12.8495C14.9787 12.999 15.2242 12.999 15.3792 12.8495L17.4492 10.8518V20.2647C17.4492 20.4856 17.6283 20.6647 17.8492 20.6647H18.1428C18.3637 20.6647 18.5428 20.4856 18.5428 20.2647V10.8451L20.6197 12.8495Z" fill="white"/>
    <path d="M17.4492 10.8518H17.6492V10.3809L17.3103 10.7079L17.4492 10.8518ZM18.5428 10.8451L18.6817 10.7012L18.3428 10.3742V10.8451H18.5428ZM21.0364 12.7055C20.9589 12.7803 20.8361 12.7803 20.7586 12.7055L20.4809 12.9934C20.7133 13.2177 21.0817 13.2177 21.3142 12.9934L21.0364 12.7055ZM21.2259 12.5227L21.0364 12.7055L21.3142 12.9934L21.5037 12.8105L21.2259 12.5227ZM21.2259 12.2348C21.3074 12.3135 21.3074 12.444 21.2259 12.5227L21.5037 12.8105C21.7481 12.5746 21.7481 12.1829 21.5037 11.947L21.2259 12.2348ZM18.1384 9.25522L21.2259 12.2348L21.5037 11.947L18.4161 8.96739L18.1384 9.25522ZM17.8606 9.25522C17.9381 9.18044 18.0609 9.18044 18.1384 9.25522L18.4161 8.96739C18.1837 8.74305 17.8153 8.74305 17.5828 8.96739L17.8606 9.25522ZM14.7731 12.2348L17.8606 9.25522L17.5828 8.96739L14.4953 11.947L14.7731 12.2348ZM14.7731 12.5227C14.6916 12.444 14.6916 12.3135 14.7731 12.2348L14.4953 11.947C14.2508 12.1829 14.2508 12.5746 14.4953 12.8105L14.7731 12.5227ZM14.9626 12.7055L14.7731 12.5227L14.4953 12.8105L14.6848 12.9934L14.9626 12.7055ZM15.2403 12.7055C15.1629 12.7803 15.0401 12.7803 14.9626 12.7055L14.6848 12.9934C14.9173 13.2177 15.2856 13.2177 15.5181 12.9934L15.2403 12.7055ZM17.3103 10.7079L15.2403 12.7055L15.5181 12.9934L17.5881 10.9957L17.3103 10.7079ZM17.6492 20.2647V10.8518H17.2492V20.2647H17.6492ZM17.8492 20.4647C17.7388 20.4647 17.6492 20.3752 17.6492 20.2647H17.2492C17.2492 20.5961 17.5179 20.8647 17.8492 20.8647V20.4647ZM18.1428 20.4647H17.8492V20.8647H18.1428V20.4647ZM18.3428 20.2647C18.3428 20.3752 18.2533 20.4647 18.1428 20.4647V20.8647C18.4742 20.8647 18.7428 20.5961 18.7428 20.2647H18.3428ZM18.3428 10.8451V20.2647H18.7428V10.8451H18.3428ZM20.7586 12.7055L18.6817 10.7012L18.4039 10.989L20.4809 12.9934L20.7586 12.7055Z" fill="white"/>
    <path d="M23.3846 26.996H12.6154C11.7 26.996 11 26.31 11 25.4129V15.9146C11 15.0175 11.7 14.3315 12.6154 14.3315H15.2305C15.4515 14.3315 15.6305 14.5106 15.6305 14.7315V14.9869C15.6305 15.2078 15.4515 15.3869 15.2305 15.3869H12.6154C12.2923 15.3869 12.0769 15.598 12.0769 15.9146V25.4129C12.0769 25.7295 12.2923 25.9406 12.6154 25.9406H23.3846C23.7077 25.9406 23.9231 25.7295 23.9231 25.4129V15.9146C23.9231 15.598 23.7077 15.3869 23.3846 15.3869H20.6611C20.4402 15.3869 20.2611 15.2078 20.2611 14.9869V14.7315C20.2611 14.5106 20.4402 14.3315 20.6611 14.3315H23.3846C24.3 14.3315 25 15.0175 25 15.9146V25.4129C25 26.31 24.3 26.996 23.3846 26.996Z" fill="white" stroke="white" stroke-width="0.4"/>
</svg>
