<svg xmlns="http://www.w3.org/2000/svg" width="40" height="40" viewBox="0 0 40 40" fill="none">
    <path fill-rule="evenodd" clip-rule="evenodd"
          d="M31.6667 25V30C31.6667 30.9205 30.9205 31.6667 30 31.6667H25L25 26.6667C25 25.7462 25.7462 25 26.6667 25H31.6667Z"
          fill="#E9E9E9"/>
    <path fill-rule="evenodd" clip-rule="evenodd"
          d="M18.3333 25V30C18.3333 30.9205 17.5871 31.6667 16.6667 31.6667H11.6667L11.6667 26.6667C11.6667 25.7462 12.4129 25 13.3333 25H18.3333Z"
          fill="#E9E9E9"/>
    <path fill-rule="evenodd" clip-rule="evenodd"
          d="M18.3333 11.6667V16.6667C18.3333 17.5871 17.5871 18.3333 16.6667 18.3333H11.6667L11.6667 13.3333C11.6667 12.4128 12.4129 11.6667 13.3333 11.6667H18.3333Z"
          fill="#E9E9E9"/>
    <path d="M8.33334 10C8.33334 9.07953 9.07954 8.33334 10 8.33334H16.6667C17.5871 8.33334 18.3333 9.07954 18.3333 10V16.6667C18.3333 17.5872 17.5871 18.3333 16.6667 18.3333H10C9.07953 18.3333 8.33334 17.5872 8.33334 16.6667L8.33334 10Z"
          stroke="black" stroke-width="1.66667"/>
    <path d="M8.33334 23.3333C8.33334 22.4128 9.07954 21.6667 10 21.6667H16.6667C17.5871 21.6667 18.3333 22.4128 18.3333 23.3333V30C18.3333 30.9205 17.5871 31.6667 16.6667 31.6667H10C9.07953 31.6667 8.33334 30.9205 8.33334 30L8.33334 23.3333Z"
          stroke="black" stroke-width="1.66667"/>
    <path d="M21.6667 23.3333C21.6667 22.4128 22.4129 21.6667 23.3333 21.6667H30C30.9205 21.6667 31.6667 22.4128 31.6667 23.3333V30C31.6667 30.9205 30.9205 31.6667 30 31.6667H23.3333C22.4129 31.6667 21.6667 30.9205 21.6667 30L21.6667 23.3333Z"
          stroke="black" stroke-width="1.66667"/>
    <circle cx="26.6667" cy="13.3333" r="5" stroke="black" stroke-width="1.66667"/>
</svg>
